# xmcd CD database file
#
# Track frame offsets:
#	150
#	25615
#	31447
#	39868
#	44754
#	55894
#	77275
#	91688
#	108552
#	114425
#	127122
#	139927
#	157351
#	177505
#	187609
#	196188
#	217177
#	237546
#	244657
#	261073
#	265787
#	274434
#	285062
#	293798
#	303406
#	317032
#
# Disc length: 4353 seconds
#
# Revision: 0
# Processed by: cddbd v1.5.2PL0 Copyright (c) Steve Scherf et al.
# Submitted via: CDex 1.70beta2
#
DISCID=7610ff1a
DTITLE=Frisell,Bill - Disfarmer
DYEAR=2009
DGENRE=Jazz
TTITLE0=Disfarmer Theme
TTITLE1=Lonely Man
TTITLE2=Lost, Night
TTITLE3=Farmer
TTITLE4=Focus
TTITLE5=Peter Miller´s Discovery
TTITLE6=That´s Alright, Mama
TTITLE7=Little Girl
TTITLE8=Little Boy
TTITLE9=No Goes Gets In
TTITLE10=Lovesick Blues
TTITLE11=I Can't Help It [If I'm Still In Love With You]
TTITLE12=Shutter, Dream
TTITLE13=Exposed
TTITLE14=The Wizzard
TTITLE15=Think
TTITLE16=Drink
TTITLE17=Play
TTITLE18=I Am Not A Farmer
TTITLE19=Small Town
TTITLE20=Arkansas [Part 1]
TTITLE21=Arkansas [Part 2]
TTITLE22=Arkansas [Part 3]
TTITLE23=Lost Again,Dark
TTITLE24=Natural Light
TTITLE25=Did You See Him?
EXTD=YEAR: 2009
EXTT0=
EXTT1=
EXTT2=
EXTT3=
EXTT4=
EXTT5=
EXTT6=
EXTT7=
EXTT8=
EXTT9=
EXTT10=
EXTT11=
EXTT12=
EXTT13=
EXTT14=
EXTT15=
EXTT16=
EXTT17=
EXTT18=
EXTT19=
EXTT20=
EXTT21=
EXTT22=
EXTT23=
EXTT24=
EXTT25=
PLAYORDER=
